<svg xmlns="http://www.w3.org/2000/svg" xmlns:xlink="http://www.w3.org/1999/xlink" viewBox="0 0 45.63 49.88"><defs><style>.cls-1{fill:#525252;}.cls-2{fill:url(#_ÂÁ_Ï_ÌÌ_È_ËÂÌÚ_105);}.cls-3{fill:#82e13f;}.cls-4{fill:#5da83d;}.cls-5{fill:url(#linear-gradient);}.cls-6{fill:#5a9f39;}.cls-7{fill:#5da53b;}.cls-8{fill:#60b13b;}.cls-9{fill:url(#linear-gradient-2);}.cls-10{fill:url(#linear-gradient-3);}.cls-11{fill:#6fc139;}.cls-12{fill:url(#linear-gradient-4);}.cls-13{fill:url(#linear-gradient-5);}.cls-14{fill:url(#linear-gradient-6);}</style><linearGradient id="_ÂÁ_Ï_ÌÌ_È_ËÂÌÚ_105" x1="6.91" y1="27.29" x2="42.63" y2="27.29" gradientUnits="userSpaceOnUse"><stop offset="0" stop-color="#a8a8a8"/><stop offset="1" stop-color="#fff"/></linearGradient><linearGradient id="linear-gradient" x1="-618.83" y1="81.33" x2="-618.83" y2="106.94" gradientTransform="translate(57.43 -600.48) rotate(-79.16)" gradientUnits="userSpaceOnUse"><stop offset="0.01" stop-color="#5ea83d"/><stop offset="0.61" stop-color="#5eaa3d"/><stop offset="0.82" stop-color="#5fb13b"/><stop offset="0.98" stop-color="#60bc39"/><stop offset="1" stop-color="#60bf39"/></linearGradient><linearGradient id="linear-gradient-2" x1="17.44" y1="0.01" x2="17.44" y2="28.15" gradientUnits="userSpaceOnUse"><stop offset="0.01" stop-color="#6bb14a"/><stop offset="0.64" stop-color="#6ab348"/><stop offset="0.87" stop-color="#65b841"/><stop offset="1" stop-color="#60bf39"/></linearGradient><linearGradient id="linear-gradient-3" x1="78.35" y1="-55.96" x2="92.3" y2="-55.96" gradientTransform="translate(-63.36 56.66) rotate(10.14)" gradientUnits="userSpaceOnUse"><stop offset="0" stop-color="#71c341"/><stop offset="0.33" stop-color="#7bd63f"/><stop offset="0.67" stop-color="#82e33e"/><stop offset="1" stop-color="#84e73e"/></linearGradient><linearGradient id="linear-gradient-4" x1="49.88" y1="86.96" x2="74.32" y2="86.96" gradientTransform="matrix(0.88, 0, 0, 0.84, -43.87, -50.5)" gradientUnits="userSpaceOnUse"><stop offset="0" stop-color="#6abc40"/><stop offset="0.81" stop-color="#64b040"/><stop offset="1" stop-color="#62ad40"/></linearGradient><linearGradient id="linear-gradient-5" x1="49.88" y1="94.97" x2="74.32" y2="94.97" gradientTransform="matrix(0.88, 0, 0, 0.84, -43.87, -50.5)" gradientUnits="userSpaceOnUse"><stop offset="0" stop-color="#77cf39"/><stop offset="0.42" stop-color="#70c33b"/><stop offset="1" stop-color="#62ad40"/></linearGradient><linearGradient id="linear-gradient-6" x1="22.39" y1="31.08" x2="37.08" y2="57.58" gradientUnits="userSpaceOnUse"><stop offset="0" stop-color="#74cd3f"/><stop offset="0.2" stop-color="#7ad63f"/><stop offset="0.61" stop-color="#81e33e"/><stop offset="1" stop-color="#84e73e"/></linearGradient></defs><title>Plant2</title><g id="Layer_2" data-name="Layer 2"><g id="Layer_1-2" data-name="Layer 1"><circle class="cls-1" cx="24.77" cy="27.29" r="16.8"/><path class="cls-2" d="M24.77,45.16A17.87,17.87,0,1,1,42.63,27.29,17.89,17.89,0,0,1,24.77,45.16Zm0-33.6A15.74,15.74,0,1,0,40.5,27.29,15.75,15.75,0,0,0,24.77,11.56Z"/><path class="cls-3" d="M34.81,19.82c-7.38-1-14,2.64-14.67,8.08S24.82,38.54,32.2,39.52s12.63-2.77,13.35-8.21S42.2,20.8,34.81,19.82Z"/><path class="cls-4" d="M32,39.52c7.38,1,12.63-2.77,13.35-8.21L19.92,27.9C19.2,33.34,24.6,38.54,32,39.52Z"/><path class="cls-5" d="M34.59,19.82c-7.38-1-14,2.64-14.67,8.08l25.41,3.41C46.05,25.87,42,20.8,34.59,19.82Z"/><path class="cls-6" d="M11,30.75C6,35,5.38,40.58,8.49,44.26L24.77,28.91C21.42,26.22,15.57,26.91,11,30.75Z"/><path class="cls-7" d="M25.68,29.78a6.22,6.22,0,0,0-.91-.87L8.49,44.26c3.1,3.67,8.79,4,13.78-.19S28.79,33.46,25.68,29.78Z"/><path class="cls-8" d="M32.6,13.48C32.15,5.71,27.15-.32,21.43,0L23,28.13C28.77,27.81,33,21.25,32.6,13.48Z"/><path class="cls-9" d="M11.88,14.67c.44,7.76,5.44,13.79,11.16,13.46L21.43,0C15.71.34,11.43,6.9,11.88,14.67Z"/><path class="cls-3" d="M35.46,9.29c-3.05-2-7.69-.22-10.37,3.92s-2.37,9.09.68,11.06,7.69.22,10.37-3.92S38.51,11.26,35.46,9.29Z"/><path class="cls-10" d="M24.93,13.21c-2.68,4.14-2.37,9.09.68,11.06l9.69-15C32.25,7.32,27.61,9.07,24.93,13.21Z"/><path class="cls-11" d="M35.3,9.29l-9.69,15c3,2,7.69.22,10.36-3.92S38.35,11.26,35.3,9.29Z"/><path class="cls-12" d="M11.82,18.88C6.51,19,0,21.84,0,25.55l21.52-.08C21.47,21.76,17.13,18.8,11.82,18.88Z"/><path class="cls-13" d="M0,25.55c.05,3.72,6.7,6.85,12,6.78s9.57-3.14,9.52-6.86Z"/><path class="cls-3" d="M40.23,35.89c-2.89-6.09-8.87-9.3-13.35-7.17S21.1,37.5,24,43.59,32.1,51.08,36.59,49,43.11,42,40.23,35.89Z"/><path class="cls-14" d="M23.78,43.59c2.88,6.09,8.12,7.49,12.6,5.36L26.67,28.72C22.19,30.84,20.89,37.5,23.78,43.59Z"/><path class="cls-11" d="M40,35.89c-2.89-6.09-8.86-9.3-13.35-7.17L36.38,49C40.87,46.82,42.91,42,40,35.89Z"/></g></g></svg>