 <svg id="krulletje" viewBox="0 0 60 60" version="1.1" width="150px" height="150px" xmlns="http://www.w3.org/2000/svg" xmlns:xlink="http://www.w3.org/1999/xlink">
          <!-- Generator: Sketch 51.3 (57544) - http://www.bohemiancoding.com/sketch -->
          <title>Krullen</title>
          <desc>Created with Sketch.</desc>
          <defs></defs>
          <g id="Page-1" stroke="none" stroke-width="1" fill="none" fill-rule="evenodd">
            <g id="Tablet" transform="translate(-350.000000, -233.000000)" fill-rule="nonzero">
              <g id="Krullen" transform="translate(351.000000, 234.000000)">
                <circle id="Oval-Copy-2" stroke="#979797" fill="#D8D8D8" cx="28.5" cy="28.5" r="28.5"></circle>
                <path d="M39.5,3.5 L39.5,53.5" id="Line-Copy-2" stroke="#979797" stroke-linecap="square"></path>
                <rect id="Rectangle-Copy-2" stroke="#131313" fill-opacity="0" fill="#FFFFFF" x="44.5" y="17.5" width="5" height="10"></rect>
                <rect id="Rectangle-Copy-3" stroke="#131313" fill-opacity="0" fill="#FFFFFF" x="44.5" y="33.5" width="5" height="10"></rect>
                <circle id="Oval-2-Copy-4" fill="#000000" cx="47" cy="39" r="3"></circle>
                <circle id="Oval-2-Copy-5" fill="#000000" cx="47" cy="23" r="3"></circle>
                <path d="M47.5,27.5 L47.5,33.5" id="Line-2-Copy" stroke="#080808" stroke-linecap="square"></path>
                <circle id="Oval-3" stroke="#979797" fill="#D8D8D8" cx="15.5" cy="6.5" r="3.5"></circle>
                <circle id="Oval-3-Copy-22" stroke="#979797" fill="#D8D8D8" transform="translate(13.500000, 27.500000) scale(-1, 1) translate(-13.500000, -27.500000) "
                  cx="13.5" cy="27.5" r="3.5"></circle>
                <circle id="Oval-3-Copy-4" stroke="#979797" fill="#D8D8D8" cx="24.5" cy="3.5" r="3.5"></circle>
                <circle id="Oval-3-Copy-23" stroke="#979797" fill="#D8D8D8" transform="translate(22.500000, 23.500000) scale(-1, 1) translate(-22.500000, -23.500000) "
                  cx="22.5" cy="23.5" r="3.5"></circle>
                <circle id="Oval-3-Copy-8" stroke="#979797" fill="#D8D8D8" cx="31.5" cy="4.5" r="3.5"></circle>
                <circle id="Oval-3-Copy-24" stroke="#979797" fill="#D8D8D8" transform="translate(29.500000, 25.500000) scale(-1, 1) translate(-29.500000, -25.500000) "
                  cx="29.5" cy="25.5" r="3.5"></circle>
                <circle id="Oval-3-Copy-15" stroke="#979797" fill="#D8D8D8" cx="37.5" cy="6.5" r="3.5"></circle>
                <circle id="Oval-3-Copy-25" stroke="#979797" fill="#D8D8D8" transform="translate(35.500000, 27.500000) scale(-1, 1) translate(-35.500000, -27.500000) "
                  cx="35.5" cy="27.5" r="3.5"></circle>
                <circle id="Oval-3-Copy-2" stroke="#979797" fill="#D8D8D8" cx="8.5" cy="16.5" r="3.5"></circle>
                <circle id="Oval-3-Copy-26" stroke="#979797" fill="#D8D8D8" transform="translate(6.500000, 37.500000) scale(-1, 1) translate(-6.500000, -37.500000) "
                  cx="6.5" cy="37.5" r="3.5"></circle>
                <circle id="Oval-3-Copy-44" stroke="#979797" fill="#D8D8D8" transform="translate(22.500000, 45.500000) scale(-1, 1) translate(-22.500000, -45.500000) "
                  cx="22.5" cy="45.5" r="3.5"></circle>
                <circle id="Oval-3-Copy-9" stroke="#979797" fill="#D8D8D8" cx="15.5" cy="18.5" r="3.5"></circle>
                <circle id="Oval-3-Copy-27" stroke="#979797" fill="#D8D8D8" transform="translate(13.500000, 39.500000) scale(-1, 1) translate(-13.500000, -39.500000) "
                  cx="13.5" cy="39.5" r="3.5"></circle>
                <circle id="Oval-3-Copy-45" stroke="#979797" fill="#D8D8D8" transform="translate(29.500000, 47.500000) scale(-1, 1) translate(-29.500000, -47.500000) "
                  cx="29.5" cy="47.5" r="3.5"></circle>
                <circle id="Oval-3-Copy-16" stroke="#979797" fill="#D8D8D8" cx="21.5" cy="20.5" r="3.5"></circle>
                <circle id="Oval-3-Copy-28" stroke="#979797" fill="#D8D8D8" transform="translate(19.500000, 41.500000) scale(-1, 1) translate(-19.500000, -41.500000) "
                  cx="19.5" cy="41.5" r="3.5"></circle>
                <circle id="Oval-3-Copy-46" stroke="#979797" fill="#D8D8D8" transform="translate(35.500000, 49.500000) scale(-1, 1) translate(-35.500000, -49.500000) "
                  cx="35.5" cy="49.5" r="3.5"></circle>
                <circle id="Oval-3-Copy-5" stroke="#979797" fill="#D8D8D8" cx="17.5" cy="12.5" r="3.5"></circle>
                <circle id="Oval-3-Copy-29" stroke="#979797" fill="#D8D8D8" transform="translate(15.500000, 33.500000) scale(-1, 1) translate(-15.500000, -33.500000) "
                  cx="15.5" cy="33.5" r="3.5"></circle>
                <circle id="Oval-3-Copy-47" stroke="#979797" fill="#D8D8D8" transform="translate(31.500000, 41.500000) scale(-1, 1) translate(-31.500000, -41.500000) "
                  cx="31.5" cy="41.5" r="3.5"></circle>
                <circle id="Oval-3-Copy-10" stroke="#979797" fill="#D8D8D8" cx="24.5" cy="14.5" r="3.5"></circle>
                <circle id="Oval-3-Copy-30" stroke="#979797" fill="#D8D8D8" transform="translate(22.500000, 35.500000) scale(-1, 1) translate(-22.500000, -35.500000) "
                  cx="22.5" cy="35.5" r="3.5"></circle>
                <circle id="Oval-3-Copy-17" stroke="#979797" fill="#D8D8D8" cx="30.5" cy="16.5" r="3.5"></circle>
                <circle id="Oval-3-Copy-31" stroke="#979797" fill="#D8D8D8" transform="translate(28.500000, 37.500000) scale(-1, 1) translate(-28.500000, -37.500000) "
                  cx="28.5" cy="37.5" r="3.5"></circle>
                <circle id="Oval-3-Copy" stroke="#979797" fill="#D8D8D8" cx="11.5" cy="11.5" r="3.5"></circle>
                <circle id="Oval-3-Copy-32" stroke="#979797" fill="#D8D8D8" transform="translate(9.500000, 32.500000) scale(-1, 1) translate(-9.500000, -32.500000) "
                  cx="9.5" cy="32.5" r="3.5"></circle>
                <circle id="Oval-3-Copy-11" stroke="#979797" fill="#D8D8D8" cx="18.5" cy="13.5" r="3.5"></circle>
                <circle id="Oval-3-Copy-33" stroke="#979797" fill="#D8D8D8" transform="translate(16.500000, 34.500000) scale(-1, 1) translate(-16.500000, -34.500000) "
                  cx="16.5" cy="34.5" r="3.5"></circle>
                <circle id="Oval-3-Copy-48" stroke="#979797" fill="#D8D8D8" transform="translate(32.500000, 42.500000) scale(-1, 1) translate(-32.500000, -42.500000) "
                  cx="32.5" cy="42.5" r="3.5"></circle>
                <circle id="Oval-3-Copy-18" stroke="#979797" fill="#D8D8D8" cx="24.5" cy="15.5" r="3.5"></circle>
                <circle id="Oval-3-Copy-34" stroke="#979797" fill="#D8D8D8" transform="translate(22.500000, 36.500000) scale(-1, 1) translate(-22.500000, -36.500000) "
                  cx="22.5" cy="36.5" r="3.5"></circle>
                <circle id="Oval-3-Copy-6" stroke="#979797" fill="#D8D8D8" cx="20.5" cy="7.5" r="3.5"></circle>
                <circle id="Oval-3-Copy-35" stroke="#979797" fill="#D8D8D8" transform="translate(18.500000, 28.500000) scale(-1, 1) translate(-18.500000, -28.500000) "
                  cx="18.5" cy="28.5" r="3.5"></circle>
                <circle id="Oval-3-Copy-12" stroke="#979797" fill="#D8D8D8" cx="27.5" cy="9.5" r="3.5"></circle>
                <circle id="Oval-3-Copy-36" stroke="#979797" fill="#D8D8D8" transform="translate(25.500000, 30.500000) scale(-1, 1) translate(-25.500000, -30.500000) "
                  cx="25.5" cy="30.5" r="3.5"></circle>
                <circle id="Oval-3-Copy-19" stroke="#979797" fill="#D8D8D8" cx="33.5" cy="11.5" r="3.5"></circle>
                <circle id="Oval-3-Copy-37" stroke="#979797" fill="#D8D8D8" transform="translate(31.500000, 32.500000) scale(-1, 1) translate(-31.500000, -32.500000) "
                  cx="31.5" cy="32.5" r="3.5"></circle>
                <circle id="Oval-3-Copy-3" stroke="#979797" fill="#D8D8D8" cx="4.5" cy="21.5" r="3.5"></circle>
                <circle id="Oval-3-Copy-38" stroke="#979797" fill="#D8D8D8" transform="translate(4.500000, 32.500000) scale(-1, 1) translate(-4.500000, -32.500000) "
                  cx="4.5" cy="32.5" r="3.5"></circle>
                <circle id="Oval-3-Copy-49" stroke="#979797" fill="#D8D8D8" transform="translate(18.500000, 50.500000) scale(-1, 1) translate(-18.500000, -50.500000) "
                  cx="18.5" cy="50.5" r="3.5"></circle>
                <circle id="Oval-3-Copy-13" stroke="#979797" fill="#D8D8D8" cx="11.5" cy="23.5" r="3.5"></circle>
                <circle id="Oval-3-Copy-39" stroke="#979797" fill="#D8D8D8" transform="translate(9.500000, 44.500000) scale(-1, 1) translate(-9.500000, -44.500000) "
                  cx="9.5" cy="44.5" r="3.5"></circle>
                <circle id="Oval-3-Copy-50" stroke="#979797" fill="#D8D8D8" transform="translate(25.500000, 52.500000) scale(-1, 1) translate(-25.500000, -52.500000) "
                  cx="25.5" cy="52.5" r="3.5"></circle>
                <circle id="Oval-3-Copy-20" stroke="#979797" fill="#D8D8D8" cx="17.5" cy="25.5" r="3.5"></circle>
                <circle id="Oval-3-Copy-40" stroke="#979797" fill="#D8D8D8" transform="translate(15.500000, 46.500000) scale(-1, 1) translate(-15.500000, -46.500000) "
                  cx="15.5" cy="46.5" r="3.5"></circle>
                <circle id="Oval-3-Copy-51" stroke="#979797" fill="#D8D8D8" transform="translate(31.500000, 53.500000) scale(-1, 1) translate(-31.500000, -53.500000) "
                  cx="31.5" cy="53.5" r="3.5"></circle>
                <circle id="Oval-3-Copy-7" stroke="#979797" fill="#D8D8D8" cx="13.5" cy="17.5" r="3.5"></circle>
                <circle id="Oval-3-Copy-41" stroke="#979797" fill="#D8D8D8" transform="translate(11.500000, 38.500000) scale(-1, 1) translate(-11.500000, -38.500000) "
                  cx="11.5" cy="38.5" r="3.5"></circle>
                <circle id="Oval-3-Copy-52" stroke="#979797" fill="#D8D8D8" transform="translate(27.500000, 46.500000) scale(-1, 1) translate(-27.500000, -46.500000) "
                  cx="27.5" cy="46.5" r="3.5"></circle>
                <circle id="Oval-3-Copy-14" stroke="#979797" fill="#D8D8D8" cx="20.5" cy="19.5" r="3.5"></circle>
                <circle id="Oval-3-Copy-55" stroke="#979797" fill="#D8D8D8" cx="3.5" cy="27.5" r="3.5"></circle>
                <circle id="Oval-3-Copy-54" stroke="#979797" fill="#D8D8D8" cx="6.5" cy="26.5" r="3.5"></circle>
                <circle id="Oval-3-Copy-42" stroke="#979797" fill="#D8D8D8" transform="translate(18.500000, 40.500000) scale(-1, 1) translate(-18.500000, -40.500000) "
                  cx="18.5" cy="40.5" r="3.5"></circle>
                <circle id="Oval-3-Copy-53" stroke="#979797" fill="#D8D8D8" transform="translate(34.500000, 48.500000) scale(-1, 1) translate(-34.500000, -48.500000) "
                  cx="34.5" cy="48.5" r="3.5"></circle>
                <circle id="Oval-3-Copy-21" stroke="#979797" fill="#D8D8D8" cx="26.5" cy="21.5" r="3.5"></circle>
                <circle id="Oval-3-Copy-43" stroke="#979797" fill="#D8D8D8" transform="translate(24.500000, 42.500000) scale(-1, 1) translate(-24.500000, -42.500000) "
                  cx="24.5" cy="42.5" r="3.5"></circle>
              </g>
            </g>
          </g>
        </svg>
