<?xml version="1.0" encoding="UTF-8"?>
<svg width="262px" height="177px" viewBox="0 0 262 177" version="1.1" xmlns="http://www.w3.org/2000/svg" xmlns:xlink="http://www.w3.org/1999/xlink">
    <!-- Generator: Sketch 51.3 (57544) - http://www.bohemiancoding.com/sketch -->
    <title>Creepy</title>
    <desc>Created with Sketch.</desc>
    <defs></defs>
    <g id="Page-1" stroke="none" stroke-width="1" fill="none" fill-rule="evenodd">
        <g id="Creepy" fill-rule="nonzero">
            <path d="M176.1191,23.7549907 L179.262,38.4799907 C180.3164,45.0381907 175.3314,56.4559907 172,66.5439907 C179.2902,78.8639907 177.1058,77.4059907 188.203,74.5467907 C193.174,56.4277907 196.1649,47.5207907 198.955,39.5497907 L203.8125,31.2640907 C204.1525,21.2840907 204.5925,8.00509069 200.9525,2.34009069 C193.6225,-1.31220931 190.8925,0.123290687 187.8825,1.24459069 C184.8368,5.07989069 180.8491,7.27649069 176.1191,23.7549907 Z" id="path2989" fill="#391500"></path>
            <path d="M80,32.2332 C82.3658,45.4632 84.2538,58.1822 82.1342,66.6092 L103.0492,67.3406 L108.1712,40.2786 L107.31753,13.5826 C108.073,6.8084 100.59163,8.5027 96.21953,7 C87.2194,14.3849 82.176,22.8992 80,32.2332 Z" id="path2987" fill="#391500"></path>
            <path d="M115.7454,45.2923683 C132.7534,39.3183138 135.0554,40.0457817 153.0464,41.0493857 L166.262398,30.6607172 C186.671449,28.165062 200.254642,30.4173518 207.011975,37.4175866 C204.388175,69.9136179 218.775216,66.1586014 202.329016,89.6802082 C153.311016,102.061375 117.785654,92.9997445 70.5976539,82.9057649 C73.9292539,75.0031083 71.4206,62.214336 75.8872,49.5336831 C92.6142,40.5084983 88.8172,38.716659 107.7032,39.4563094 L115.7454,45.2923683 Z" id="path2991" fill="#2C3E50"></path>
            <path d="M10.7238396,69.2282549 C13.3309396,61.8775549 15.6323,51.056 24.635,46.903 C28.2044268,46.4034467 30.4542601,48.9779801 31.3845,54.6266 C32.3147399,60.2752199 31.5539066,66.7422199 29.102,74.0276 L10.7238396,69.2282549 Z" id="path3763" fill="#EDB9AB"></path>
            <path d="M236,45.7888531 L236.57061,29.2408531 L242.226962,11.0314861 C244.173455,9.41169762 246.590528,8.3846802 248.378068,9.41169762 C250.952515,10.8908265 251.669787,10.3255855 254.25991,13.4579852 L255.97171,28.0997531 L254.25991,50.3537531 L236,45.7888531 Z" id="path3761" fill="#EDB9AB"></path>
            <path d="M259.62789,51.2053 C257.040034,71.1802 257.040034,62.7360705 252.749064,90.0410705 C252.749064,101.541453 254.324919,108.723578 246.50379,115.6847 L230.52679,143.6447 L209.98509,155.6276 L185.44909,162.475 L123.82309,168.7518 L61.62609,163.0457 L52.49629,157.9102 L42.79929,145.3602 L17.69229,129.9502 L5.70929,122.5302 L3.99749,104.2702 L0.00319,92.8602 L5.70929,71.1802 C12.42919,66.7118 19.64229,65.4741 25.68029,67.1859 C29.86839,70.6683 30.69879,74.1359 31.95699,79.1689 L49.64599,79.73952 L69.3008375,92.8602 C67.7435841,86.0376505 67.7435841,78.8109839 69.3008375,71.1802 C70.8580908,63.5494161 76.3600983,60.265262 85.8068599,61.3277377 L118.077216,61.3277377 C137.341127,56.6342974 157.928294,56.6342974 179.838717,61.3277377 C187.209832,58.653935 195.232295,58.653935 203.906105,61.3277377 C212.579915,64.0015404 214.606244,72.456977 209.98509,86.6940474 L227.10699,42.07904 C227.05329,22.40704 269.23149,26.2363 259.62789,51.2053 Z" id="path3765" fill="#D35400"></path>
            <path d="M116.533,87.966 C132.07,67.239 146.374,71.143 157.928,84.4505 C168.389,90.2434 175.25,109.1555 177.872,128.4195 C180.6652,139.0615 185.1975,137.5989 176.7308,142.7915 C172.702,164.7585 168.8196,167.3975 154.1918,175.2615 C143.8418,177.4089 131.2878,176.4691 121.0958,174.1969 C97.7758,161.0929 105.1908,162.6899 101.4098,138.0009 C88.4868,142.4044 94.2698,113.8879 102.551,114.5799 C103.8441,105.4012 110.71,95.736 116.533,87.966 Z" id="path3767" fill="#EDB9AB"></path>
            <g id="Group-7" transform="translate(139.500000, 100.000000) scale(1, -1) translate(-139.500000, -100.000000) translate(122.000000, 86.000000)">
                <path d="M6,24.5 C10.5955416,26.6746539 14.0955416,27.7619808 16.5,27.7619808 C18.9044584,27.7619808 22.4044584,26.6746539 27,24.5" id="Line-21" stroke="#979797" stroke-linecap="square"></path>
                <path d="M6,24.8734098 L9.16424926,24.3820337 C18.1998479,24.4549512 22.4250506,24.5368472 21.8398576,24.6277218 C21.2546645,24.7185964 22.974712,25.0340786 27,25.5741683" id="Line-22" stroke="#979797" stroke-width="1.3" stroke-linecap="square"></path>
                <path d="M16.5,11 C16.1021779,12.4026885 15.6472194,13.5795494 15.1351246,14.5305827 C14.6230297,15.481616 13.9113215,16.4714217 13,17.5" id="Line-19" stroke="#979797" stroke-width="1.3" stroke-linecap="square"></path>
                <path d="M20.5,11 C20.1021779,12.4026885 19.6472194,13.5795494 19.1351246,14.5305827 C18.6230297,15.481616 17.9113215,16.4714217 17,17.5" id="Line-19-Copy" stroke="#979797" stroke-width="1.3" stroke-linecap="square" transform="translate(18.750000, 14.250000) scale(-1, 1) translate(-18.750000, -14.250000) "></path>
                <path d="M13.5,18.5 L19.5,18.5" id="Line-20" stroke="#979797" stroke-linecap="square"></path>
                <ellipse id="Oval-7" fill="#FFFFFF" transform="translate(28.000000, 5.000000) scale(1, -1) translate(-28.000000, -5.000000) " cx="28" cy="5" rx="5" ry="3"></ellipse>
                <path d="M6,8 C8.76142375,8 11,6.65685425 11,5 C11,4.50216129 10.7978933,4.0326453 10.4402238,3.61937831 C9.60753541,2.65725371 7.93169257,2 6,2 C3.23857625,2 1,3.34314575 1,5 C1,6.65685425 3.23857625,8 6,8 Z" id="Oval-7-Copy" fill="#FFFFFF" transform="translate(6.000000, 5.000000) scale(1, -1) translate(-6.000000, -5.000000) "></path>
                <path d="M0,3.33066907e-16 C2.33605268,1.27249867 4.18827009,1.90874801 5.55665221,1.90874801 C6.92503434,1.90874801 9.07281693,1.27249867 12,3.33066907e-16" id="Line-17" stroke="#979797" stroke-linecap="square" transform="translate(6.000000, 0.954374) scale(1, -1) translate(-6.000000, -0.954374) "></path>
                <path d="M23,3.33066907e-16 C25.3360527,1.27249867 27.1882701,1.90874801 28.5566522,1.90874801 C29.9250343,1.90874801 32.0728169,1.27249867 35,3.33066907e-16" id="Line-17-Copy" stroke="#979797" stroke-linecap="square" transform="translate(29.000000, 0.954374) scale(1, -1) translate(-29.000000, -0.954374) "></path>
                <ellipse id="Path" fill="#000000" transform="translate(7.500000, 6.000000) scale(1, -1) translate(-7.500000, -6.000000) " cx="7.5" cy="6" rx="1.5" ry="1"></ellipse>
                <ellipse id="Path-Copy-2" fill="#000000" transform="translate(27.500000, 6.000000) scale(1, -1) translate(-27.500000, -6.000000) " cx="27.5" cy="6" rx="1.5" ry="1"></ellipse>
            </g>
        </g>
    </g>
</svg>