<?xml version="1.0" encoding="UTF-8"?>
<svg width="261px" height="200px" viewBox="0 0 261 200" version="1.1" xmlns="http://www.w3.org/2000/svg" xmlns:xlink="http://www.w3.org/1999/xlink">
    <!-- Generator: Sketch 51.3 (57544) - http://www.bohemiancoding.com/sketch -->
    <title>Knot blond</title>
    <desc>Created with Sketch.</desc>
    <defs></defs>
    <g id="Page-1" stroke="none" stroke-width="1" fill="none" fill-rule="evenodd">
        <g id="Artboard" transform="translate(-601.000000, -846.000000)" fill-rule="nonzero">
            <g id="Knot-blond" transform="translate(601.000000, 846.000000)">
                <path d="M176.114856,23.9039573 L179.254518,38.7212972 C180.307832,45.3206234 175.327968,56.8100239 172,66.9612854 C179.282689,79.3585436 177.100539,77.8914006 188.186306,75.0142706 C193.152184,56.7816471 196.140003,47.8187917 198.927228,39.7978058 L203.779724,31.4601465 C204.119373,21.4175624 204.55892,8.05529029 200.92267,2.3547653 C193.600222,-1.32043812 190.873035,0.124063838 187.866136,1.25239547 C184.823574,5.11174648 180.839983,7.32212127 176.114856,23.9039573 Z" id="path2989" fill="#391500"></path>
                <path d="M80,32.0907681 C82.3514227,45.2460897 84.2279491,57.8932957 82.1212302,66.2727285 L102.909127,67 L108,40.0907548 L107.151518,13.5454437 C107.902397,6.80948151 100.466492,8.49421782 96.1209618,7 C87.1755268,14.343215 82.1627762,22.809455 80,32.0907681 Z" id="path2987" fill="#391500"></path>
                <path d="M116.228921,45.6156595 C133.267501,39.6415408 135.57364,40.3690165 153.596988,41.3726313 L166.836748,30.9838512 C187.282495,28.4881692 200.89011,30.7404832 207.659593,37.7407932 C205.031075,70.2371735 219.443984,66.4821166 202.968213,90.003976 C153.86208,102.385276 118.272844,93.3235479 71,83.22946 C74.3375902,75.3267185 71.8244257,62.5378089 76.2990566,49.8570197 C93.0561316,40.831738 89.2523046,39.0398795 108.172261,39.7795378 L116.228921,45.6156595 Z" id="path2991" fill="#213264"></path>
                <path d="M11,69.2334005 C13.6015938,61.9328539 15.8980937,51.1851337 24.8817799,47.0604694 C28.443668,46.5643245 30.6887497,49.121292 31.6170249,54.7313718 C32.5453001,60.3414515 31.7860737,66.7643276 29.3393455,74 L11,69.2334005 Z" id="path3763" fill="#EDB9AB"></path>
                <path d="M236,45.4741496 L236.571418,29.0677065 L242.235783,11.0141081 C244.185033,9.40817582 246.60553,8.38994384 248.395602,9.40817582 C250.973695,10.8746518 251.691984,10.314246 254.285775,13.4198502 L256,27.9363678 L254.285775,50 L236,45.4741496 Z" id="path3761" fill="#EDB9AB"></path>
                <path d="M259.577994,51.6237365 C256.990603,71.5697079 256.990603,63.1378076 252.700405,90.4032632 C252.700405,101.886991 254.275977,109.058713 246.456255,116.009754 L230.482129,143.929261 L209.944124,155.894807 L185.412538,162.73229 L123.797625,169 L61.6118141,163.302164 L52.4836565,158.174101 L42.788401,145.642277 L17.6859178,130.254594 L5.70507348,122.84534 L3.99358143,104.611785 L0,93.2183099 L5.70507348,71.5697079 C12.4237646,67.1077792 19.6355669,65.8718717 25.6724807,67.5811926 C29.8598273,71.0585492 30.6900779,74.5211273 31.9480515,79.5468383 L49.6338693,80.1166319 L69.2851809,93.2183099 C67.7282077,86.4056411 67.7282077,79.1894405 69.2851809,71.5697079 C70.8421541,63.9499753 76.3431718,60.6705775 85.7882339,61.7315144 L118.052784,61.7315144 C137.31323,57.0448713 157.896693,57.0448713 179.803175,61.7315144 C187.172964,59.061584 195.193983,59.061584 203.866233,61.7315144 C212.538483,64.4014448 214.564447,72.8446358 209.944124,87.0610874 L227.062944,42.5106936 C227.009254,22.8671835 269.179866,26.6908978 259.577994,51.6237365 Z" id="path3765" fill="#7F8C8D"></path>
                <path d="M116.762604,87.5176529 C132.336918,66.7955773 146.67527,70.6986498 158.257018,84.0029882 C168.743141,89.7945119 175.620618,108.702119 178.248915,127.961542 C181.048823,138.601014 185.592008,137.138761 177.104975,142.330127 C173.066499,164.291908 169.174775,166.930281 154.511845,174.792413 C144.136989,176.939303 131.552839,175.999726 121.336362,173.728066 C97.9603573,160.627179 105.393165,162.2238 101.603085,137.540665 C88.6490489,141.943119 94.4459373,113.433394 102.747025,114.12523 C104.043231,104.948711 110.92562,95.2858069 116.762604,87.5176529 Z" id="path3767" fill="#EDB9AB"></path>
                <path d="M153.386954,176.347908 C155.043619,178.716207 156,181.50918 156,184.5 C156,193.060414 148.164983,200 138.5,200 C128.835017,200 121,193.060414 121,184.5 C121,181.57846 121.912587,178.845706 123.499052,176.513166 C121.181539,176.140679 119.067052,175.707951 117.309997,175.22633 C100.435634,163.192735 104.552279,165.07417 100,148.313021 C100.701699,136.748786 101.472603,125.946513 102.270072,115.049369 C120.197128,116.297967 111.524525,123.206948 122.418067,109.000915 C134.615826,108.976848 146.162123,109.428762 155.335308,110.210566 C165.067755,124.999404 159.858345,117.938231 176.617732,112.024992 C176.617732,112.024992 177.477841,133.88519 176.617722,132.890546 C176.094583,132.285751 175.805523,156.779978 174.915168,156.779978 C169.724761,169.179863 162.057081,173.36793 153.386954,176.347908 Z" id="Combined-Shape" fill="#E69E24"></path>
            </g>
        </g>
    </g>
</svg>