<?xml version="1.0" encoding="UTF-8" standalone="no"?>
<svg
   xmlns:dc="http://purl.org/dc/elements/1.1/"
   xmlns:cc="http://creativecommons.org/ns#"
   xmlns:rdf="http://www.w3.org/1999/02/22-rdf-syntax-ns#"
   xmlns:svg="http://www.w3.org/2000/svg"
   xmlns="http://www.w3.org/2000/svg"
   id="svg8"
   version="1.1"
   viewBox="0 0 79.375 17.197917"
   height="65"
   width="300">
  <defs
     id="defs2" />
  <metadata
     id="metadata5">
    <rdf:RDF>
      <cc:Work
         rdf:about="">
        <dc:format>image/svg+xml</dc:format>
        <dc:type
           rdf:resource="http://purl.org/dc/dcmitype/StillImage" />
        <dc:title></dc:title>
      </cc:Work>
    </rdf:RDF>
  </metadata>
  <g
     transform="translate(0,-279.80208)"
     id="layer1">
    <g
       transform="matrix(1,0,0,0.73223454,-78.076126,169.66734)"
       id="layer1-2">
      <g
         id="g12"
         transform="matrix(0.00384848,0,0,-0.00384848,100.12683,174.76278)"
         style="fill:#7f8c8d;stroke:none">
        <path
           id="path10"
           d="m -5445.1141,5976 c -23,-17 -31,-118 -33,-407 -28.3724,-948.6903 -21.8557,-886.178 -21.8928,-1711 0,-964 3,-1426 10,-1444 7,-18 11,-157 10,-380 v -351 l 24,4 c 16,3 35,-3 52,-16 l 27,-21 H 3499 6875 l 405,405 405,405 3,469 3,469 32,-8 c 18,-4 111,-28 207,-53 96,-24 243,-61 326,-81 216,-51 457,-152 631,-264 85,-55 110,-94 167,-263 41,-120 62,-245 72,-422 8,-151 -10,-294 -67,-522 -47,-189 -64,-364 -56,-560 10,-245 91,-432 253,-586 155,-146 285,-199 544,-220 155,-13 215,-4 334,50 59,27 317,181 304,181 -4,0 -75,-26 -158,-59 -82,-32 -150,-57 -150,-55 0,1 59,35 130,74 72,40 130,73 130,75 0,2 -28,-8 -62,-22 -61,-25 -68,-25 -218,-20 -155,6 -242,22 -334,62 -191,82 -350,272 -407,485 -20,73 -23,109 -23,250 1,199 13,306 59,491 64,260 78,431 54,660 -19,191 -71,381 -139,507 -45,84 -117,130 -403,256 -175,77 -240,98 -482,151 -115,26 -212,48 -215,50 -3,2 -106,31 -229,65 -124,34 -242,68 -263,77 l -38,15 v 114 c 0,63 -1,117 -2,122 -4,12 260,50 438,62 93,7 226,11 295,9 140,-5 118,4 334,-131 313,-196 496,-297 615,-339 60,-21 86,-23 313,-27 239,-4 251,-3 320,20 39,12 123,53 185,90 62,37 132,73 155,80 25,6 113,12 212,12 153,1 174,-1 210,-20 22,-11 87,-44 145,-74 129,-66 204,-121 221,-163 10,-24 15,-151 19,-482 5,-421 7,-453 26,-498 52,-123 205,-282 328,-340 88,-43 128,-46 210,-17 141,48 251,136 547,436 190,193 209,216 247,294 49,100 62,152 97,400 14,102 38,223 52,270 23,73 34,92 79,138 29,28 52,52 51,52 -1,0 -77,-31 -169,-69 -281,-115 -300,-144 -363,-556 -20,-126 -42,-251 -49,-277 -28,-98 -84,-178 -226,-322 l -138,-140 -46,18 c -55,21 -147,103 -212,189 -82,109 -77,78 -84,587 -5,320 -11,467 -20,495 -17,54 -87,116 -195,171 -49,26 -117,63 -149,82 -33,19 -84,41 -115,49 -67,15 -213,17 -333,3 -84,-10 -95,-14 -238,-94 -83,-46 -172,-89 -198,-95 -78,-17 -238,-22 -392,-12 -137,8 -152,11 -253,51 -109,42 -545,295 -632,365 -75,61 -114,75 -227,82 -139,8 -447,-13 -643,-43 -139,-21 -339,-61 -397,-80 -17,-5 -18,14 -19,478 0,266 -4,520 -7,566 l -7,83 -370,369 -371,370 H 3529 c -2924,0 -8957.1141,-2 -8974.1141,-14 z M 7087,3944 c 28,-14 32,-19 21,-30 -18,-17 -181,-110 -209,-119 -21,-7 -22,-5 -16,35 7,53 32,89 78,112 43,22 81,23 126,2 z m -104,-283 c -1,-2 -17,6 -36,18 -28,17 -41,34 -65,83 -2,5 21,-16 50,-45 30,-28 53,-54 51,-56 z" />
      </g>
    </g>
  </g>
</svg>
